<?xml version="1.0" encoding="utf-8"?>
<!-- Generator: Adobe Illustrator 19.2.1, SVG Export Plug-In . SVG Version: 6.00 Build 0)  -->
<svg version="1.1" id="layer" xmlns="http://www.w3.org/2000/svg" xmlns:xlink="http://www.w3.org/1999/xlink" x="0px" y="0px"
	 viewBox="0 0 652 652" style="enable-background:new 0 0 652 652;" xml:space="preserve">
<style type="text/css">
	.st0{fill:#038654;}
</style>
<g>
	<path class="st0" d="M68.6,262.5c10.5,0,20.1,1,28.8,2.9c8.6,1.9,16.1,5.1,22.3,9.6c6.3,4.5,11.1,10.6,14.5,18.3
		c3.4,7.7,5.1,17.3,5.1,28.9c0,10.2-1.7,19.4-5,27.6c-3.4,8.2-8,15.2-13.8,21c-5.8,5.8-12.6,10.3-20.2,13.3
		c-7.7,3.1-15.8,4.6-24.5,4.6c-9.2,0-17-0.1-23.5-0.2c-6.5-0.1-12.1-0.2-16.9-0.2h-8.3c-2.5,0-4.7,0.1-6.8,0.4
		c0.5-7.6,0.9-15.3,1.1-23.2c0.2-7.9,0.4-16.9,0.4-27.1v-25c0-10.2-0.1-19.2-0.4-27.1c-0.2-7.9-0.6-15.8-1.1-23.8H68.6z M49,351.8
		v11c0,3.6,0,6.8,0.1,9.7c0.1,2.9,0.1,4.8,0.1,5.7c1.8,0.1,4,0.2,6.6,0.4c2.6,0.1,5.8,0.2,9.6,0.2c13.8,0,24.8-4.7,32.9-14.2
		c8.1-9.4,12.1-23.7,12.1-42.8c0-7.6-1-14.4-3-20.4c-2-6-4.9-11.1-8.5-15.3c-3.7-4.2-8.1-7.5-13.2-9.7c-5.1-2.3-10.9-3.4-17.3-3.4
		c-4.4,0-8,0.1-10.7,0.3c-2.8,0.2-5.5,0.4-8.4,0.7c0,0.9,0,2.8-0.1,5.7c-0.1,2.9-0.1,6.2-0.1,9.9v11v9.2v32.7V351.8z"/>
	<path class="st0" d="M382.7,262.5c1.2,10.5,2.5,21.9,4,34c1.4,12.1,2.8,24,4.1,35.6c1.3,11.6,2.7,22.4,4,32.4
		c1.3,10,2.6,18.1,3.7,24.3h-30.1c-0.6-12.6-1.6-26.3-3-41c-1.4-14.7-2.8-29.3-4.3-43.7h-0.4c-7,14.5-13.8,28.7-20.6,42.6
		c-6.7,14-13.4,28-20,42.1h-7c-6.6-13.7-13.2-27.4-19.8-41.2c-6.6-13.7-13.3-27.6-20.3-41.7h-0.4c-2,14.1-3.4,28-4.4,41.7
		c-1,13.7-2,27.4-2.9,41.2H248c3.9-21.1,7.4-42,10.5-62.8c3.1-20.8,5.9-42,8.5-63.4h14.9c3.3,7.3,6.8,14.8,10.4,22.4
		c3.6,7.6,7.2,15.2,10.8,22.7c3.6,7.5,7.2,14.9,10.8,22.1c3.6,7.2,7.1,14.1,10.4,20.6c7.4-13.7,14.7-28.1,22-43.1
		c7.3-15,14.2-29.9,20.9-44.7H382.7z"/>
	<path class="st0" d="M411.9,310.9c5.1-4.2,10.7-7.4,16.6-9.6c5.9-2.2,11.9-3.3,17.7-3.3c4.9,0,9.4,0.6,13.5,1.7
		c4.1,1.1,7.7,2.9,10.7,5.2c3,2.4,5.3,5.5,7,9.3c1.7,3.8,2.5,8.4,2.5,13.8c0,7.8-0.1,15.1-0.3,21.8c-0.2,6.7-0.3,13.3-0.3,19.9
		c0,2.9,0.2,5.2,0.6,6.9c0.4,1.7,1.1,2.9,1.9,3.8c0.9,0.9,2,1.4,3.4,1.7c0.8,0.1,1.7,0.2,2.6,0.3c1.3,0.1,2.3,1.1,2.3,2.4
		c0,1.3-0.8,2.4-2,2.9c-2.7,1.1-5,1.9-7,2.5c-2.5,0.7-5.1,1.1-7.9,1.1c-4.5,0-8.2-1.1-11-3.3c-2.8-2.2-5-5.4-6.4-9.6
		c-2.8,3.9-6.1,7-9.8,9.4c-3.7,2.3-8.4,3.5-14.1,3.5c-4.7,0-8.6-0.6-11.9-1.8c-3.3-1.2-6-3-8.2-5.2c-2.1-2.3-3.7-4.8-4.7-7.7
		c-1-2.9-1.5-5.8-1.5-8.7c0-4,0.6-7.5,1.9-10.5c1.3-2.9,3.1-5.4,5.5-7.5c2.4-2.1,5.2-3.8,8.5-5.2c3.3-1.4,7-2.6,11.2-3.6
		c5.1-1.2,9.2-2.3,12.2-3.2c3-0.9,5.2-1.8,6.7-2.8c1.5-0.9,2.4-1.9,2.8-3c0.4-1.1,0.6-2.5,0.6-4.1c0-2.8-0.8-5.7-2.2-8.1
		c-3.1-5.2-8.3-7.9-15.4-7.9c-2.1,0-4.2,0.3-6.4,0.8c-2.2,0.6-4.3,1.3-6.3,2.3c-2,1-3.9,2-5.5,3.2c-1.7,1.2-2.9,2.4-3.8,3.8h-1.3
		L411.9,310.9z M455.4,360.8c0-5.3,0-9.3,0.1-12c0.1-2.8,0.1-5.2,0.1-7.3c-2.6,1.5-5.3,2.7-8.2,3.6c-2.9,0.9-5.5,2.1-7.9,3.5
		c-2.4,1.4-4.4,3.3-5.9,5.8c-1.5,2.5-2.3,6-2.3,10.7c0,4.5,0.9,8,2.8,10.4c1.9,2.4,4.4,3.6,7.6,3.6c4,0,7.3-1.5,9.8-4.6
		C454.2,371.4,455.4,366.8,455.4,360.8"/>
	<path class="st0" d="M555.6,325.6c-1.2-0.7-2.6-1.3-4.1-1.8c-1.5-0.5-3.3-0.7-5.2-0.7c-5.5,0-9.9,1.8-13.1,5.4
		c-3.2,3.6-4.8,7.9-4.8,12.8v7.4c0,7.5,0.1,14.5,0.3,21.1c0.2,6.6,0.6,13,1.2,19.1c-1.6-0.2-3.6-0.4-6-0.4h-7.8h-7.7
		c-2.3,0-4.4,0.1-6.1,0.4c0.6-6.1,1-12.5,1.2-19.1c0.2-6.6,0.3-13.7,0.3-21.1v-7.4c0-7.5-0.1-14.5-0.3-21
		c-0.2-6.6-0.6-13.1-1.2-19.8c2.1,0.3,4.2,0.5,6.3,0.6c2.1,0.2,4.3,0.3,6.3,0.3s4.2-0.1,6.3-0.3c2.1-0.2,4.3-0.4,6.3-0.6l-0.6,22.4
		l0.4,0.4c3.2-8.5,7-14.7,11.6-18.7c4.5-4,9.9-6,16.2-6c0.6,0,1.1,0,1.6,0.1c0.4,0.1,0.9,0.1,1.4,0.1c-0.4,1.8-0.6,3.8-0.8,5.9
		c-0.2,2.1-0.3,4.5-0.3,7.4v5.9v3.1c0,1.1,0.1,2.1,0.2,3.1C557.6,326.6,555.6,325.6,555.6,325.6"/>
	<path class="st0" d="M618.5,306.3c0,1.6,0.2,3.1,0.6,4.6l-16.2-0.4c-0.3,2.8-0.5,6.1-0.6,9.7c-0.2,3.7-0.3,7.4-0.4,11.2
		c-0.1,3.8-0.1,7.5-0.2,11c-0.1,3.6-0.1,6.6-0.1,9c0,6.4,0.1,11.5,0.5,15.4c0.3,3.9,0.8,6.9,1.6,9c0.7,2.1,1.8,3.5,3.1,4.2
		c1.3,0.7,3.1,1.1,5.1,1.1c2.3,0,4-0.2,5.1-0.5c1.1-0.3,2.2-0.8,3.3-1.4v7.5c-2.5,1.1-5.5,2.1-9.2,2.9c-3.7,0.9-7.3,1.3-10.8,1.3
		c-15.6,0-23.3-9.3-23.3-27.9c0-3.6,0.1-7.6,0.2-12s0.3-9.1,0.5-13.8c0.2-4.7,0.3-9.4,0.5-14s0.2-8.9,0.2-12.8l-12.9,0.2
		c0.4-1.5,0.6-3,0.6-4.6c0-1.5-0.2-3.1-0.6-5l12.9,0.6c0-3.8-0.1-7.4-0.2-10.7c-0.1-3.3-0.3-7.3-0.6-11.9c4.3-1.7,8.5-3.5,12.7-5.4
		c4.2-1.9,8.3-3.9,12.5-6l1.8,1.3c-0.3,2-0.5,4.3-0.6,6.9c-0.2,2.6-0.4,5.4-0.5,8.3c-0.2,2.9-0.3,5.8-0.4,8.8
		c-0.1,3-0.1,5.9-0.1,8.5l16.2-0.4C618.7,303.1,618.5,304.8,618.5,306.3"/>
	<path class="st0" d="M198,265c0,2-1.6,3.6-3.6,3.6c-2,0-3.6-1.6-3.6-3.6c0-2,1.6-3.6,3.6-3.6C196.4,261.4,198,263,198,265"/>
	<polygon class="st0" points="131.3,389.1 239.9,389.1 236.7,381.5 134.5,381.5 	"/>
	<polygon class="st0" points="136.7,376.4 234.5,376.4 231.3,368.9 139.9,368.9 	"/>
	<polygon class="st0" points="142.2,363.6 229,363.6 226.4,357.4 144.9,357.4 	"/>
	<polygon class="st0" points="147.3,351.9 224,351.9 221.6,346.2 149.7,346.2 	"/>
	<polygon class="st0" points="152.6,339.4 218.7,339.4 217.1,335.6 154.2,335.6 	"/>
	<polygon class="st0" points="157.5,327.9 213.8,327.9 212.2,324.1 159.1,324.1 	"/>
	<polygon class="st0" points="161.6,318.2 209.7,318.2 208,314.3 163.3,314.3 	"/>
	<polygon class="st0" points="166.6,306.7 204.8,306.7 203.4,303.6 167.9,303.6 	"/>
	<path class="st0" d="M179.1,265c0,2-1.6,3.6-3.6,3.6c-2,0-3.6-1.6-3.6-3.6c0-2,1.6-3.6,3.6-3.6C177.5,261.4,179.1,263,179.1,265"/>
	<path class="st0" d="M185.2,253.5l-3.5,15.4c-0.3,1.5-1.7,2.5-3.2,2.4l-16.3-0.8l13.3,6.8c1.4,0.7,2,2.3,1.5,3.8l-5.7,16.3
		c0,0,12-5.4,13.7-18.1c0,0,1.4,12.1,13.2,18.1l-5.1-16.3c-0.5-1.5,0.2-3,1.5-3.7l13.4-6.9l-16,0.8c-1.5,0.1-2.9-0.9-3.2-2.4
		L185.2,253.5z"/>
</g>
</svg>
