<svg xmlns="http://www.w3.org/2000/svg" x="0px" y="0px" width="100" height="100" viewBox="0,0,256,256">
<defs><linearGradient x1="20.375" y1="11.061" x2="28.748" y2="40.946" gradientUnits="userSpaceOnUse" id="color-1_Sq0VNi1Afgmj_gr1"><stop offset="0" stop-color="#6119d8"></stop><stop offset="1" stop-color="#0082d8"></stop></linearGradient><linearGradient x1="20" y1="24.053" x2="40.107" y2="24.053" gradientUnits="userSpaceOnUse" id="color-2_Sq0VNi1Afgmj_gr2"><stop offset="0" stop-color="#fede00"></stop><stop offset="1" stop-color="#ffd000"></stop></linearGradient></defs><g fill="none" fill-rule="nonzero" stroke="none" stroke-width="1" stroke-linecap="butt" stroke-linejoin="miter" stroke-miterlimit="10" stroke-dasharray="" stroke-dashoffset="0" font-family="none" font-weight="none" font-size="none" text-anchor="none" style="mix-blend-mode: normal"><g transform="scale(5.33333,5.33333)"><path d="M43.125,9h-38.25c-1.588,0 -2.875,1.287 -2.875,2.875v24.25c0,1.588 1.287,2.875 2.875,2.875h38.25c1.588,0 2.875,-1.287 2.875,-2.875v-24.25c0,-1.588 -1.287,-2.875 -2.875,-2.875z" fill="url(#color-1_Sq0VNi1Afgmj_gr1)"></path><circle cx="17.053" cy="24.053" r="10.053" fill="#cf1928"></circle><circle cx="30.053" cy="24.053" r="10.053" fill="url(#color-2_Sq0VNi1Afgmj_gr2)"></circle><path d="M20,24.053c0,3.072 1.382,5.818 3.553,7.662c2.172,-1.844 3.553,-4.59 3.553,-7.662c0,-3.072 -1.382,-5.818 -3.553,-7.662c-2.171,1.844 -3.553,4.59 -3.553,7.662z" fill="#d97218"></path></g></g>
</svg>